<mxfile host="app.diagrams.net" agent="Mozilla/5.0 (Windows NT 10.0; Win64; x64) AppleWebKit/537.36 (KHTML, like Gecko) Chrome/131.0.0.0 Safari/537.36" version="24.8.6">
  <diagram name="Page-1" id="HsVl_7upj26kkKA97jVK">
    <mxGraphModel dx="1674" dy="696" grid="1" gridSize="10" guides="1" tooltips="1" connect="1" arrows="1" fold="1" page="1" pageScale="1" pageWidth="850" pageHeight="1100" math="0" shadow="0">
      <root>
        <mxCell id="0" />
        <mxCell id="1" parent="0" />
        <mxCell id="TgKObJJwFAo9QxqFn2fn-66" value="&lt;font face=&quot;Helvetica&quot;&gt;&lt;span style=&quot;background-color: rgb(251, 251, 251);&quot;&gt;Pokemon1&lt;/span&gt;&lt;/font&gt;" style="shape=umlLifeline;perimeter=lifelinePerimeter;whiteSpace=wrap;html=1;container=1;collapsible=0;recursiveResize=0;outlineConnect=0;rounded=1;shadow=0;comic=0;labelBackgroundColor=default;strokeWidth=1;fontFamily=Verdana;fontSize=12;align=center;movable=1;resizable=1;rotatable=1;deletable=1;editable=1;locked=0;connectable=1;" parent="1" vertex="1">
          <mxGeometry x="220" y="210" width="100" height="700" as="geometry" />
        </mxCell>
        <mxCell id="TgKObJJwFAo9QxqFn2fn-67" value="" style="html=1;points=[];perimeter=orthogonalPerimeter;rounded=0;shadow=0;comic=0;labelBackgroundColor=default;strokeWidth=1;fontFamily=Verdana;fontSize=12;align=center;" parent="TgKObJJwFAo9QxqFn2fn-66" vertex="1">
          <mxGeometry x="45" y="100" width="10" height="550" as="geometry" />
        </mxCell>
        <mxCell id="TgKObJJwFAo9QxqFn2fn-71" value="&lt;font face=&quot;Helvetica&quot;&gt;&lt;span style=&quot;background-color: rgb(251, 251, 251);&quot;&gt;Move&lt;/span&gt;&lt;/font&gt;" style="shape=umlLifeline;perimeter=lifelinePerimeter;whiteSpace=wrap;html=1;container=1;collapsible=0;recursiveResize=0;outlineConnect=0;rounded=1;shadow=0;comic=0;labelBackgroundColor=default;strokeWidth=1;fontFamily=Verdana;fontSize=12;align=center;movable=1;resizable=1;rotatable=1;deletable=1;editable=1;locked=0;connectable=1;" parent="1" vertex="1">
          <mxGeometry x="415" y="210" width="100" height="700" as="geometry" />
        </mxCell>
        <mxCell id="TgKObJJwFAo9QxqFn2fn-72" value="" style="html=1;points=[];perimeter=orthogonalPerimeter;rounded=0;shadow=0;comic=0;labelBackgroundColor=default;strokeWidth=1;fontFamily=Verdana;fontSize=12;align=center;" parent="TgKObJJwFAo9QxqFn2fn-71" vertex="1">
          <mxGeometry x="45" y="330" width="10" height="30" as="geometry" />
        </mxCell>
        <mxCell id="TgKObJJwFAo9QxqFn2fn-76" value="&lt;font face=&quot;Helvetica&quot;&gt;&lt;span style=&quot;background-color: rgb(251, 251, 251);&quot;&gt;Pokemon2&lt;/span&gt;&lt;/font&gt;" style="shape=umlLifeline;perimeter=lifelinePerimeter;whiteSpace=wrap;html=1;container=1;collapsible=0;recursiveResize=0;outlineConnect=0;rounded=1;shadow=0;comic=0;labelBackgroundColor=default;strokeWidth=1;fontFamily=Verdana;fontSize=12;align=center;movable=1;resizable=1;rotatable=1;deletable=1;editable=1;locked=0;connectable=1;" parent="1" vertex="1">
          <mxGeometry x="610" y="210" width="100" height="700" as="geometry" />
        </mxCell>
        <mxCell id="TgKObJJwFAo9QxqFn2fn-82" value="Assignment 3 | CS 6310 FALL 2024&lt;div&gt;Sequence Diagram Skill Point System&amp;nbsp;&lt;/div&gt;&lt;div&gt;Group 55&lt;/div&gt;" style="rounded=1;whiteSpace=wrap;html=1;fillColor=#f5f5f5;fontColor=#333333;strokeColor=#666666;labelBackgroundColor=default;" parent="1" vertex="1">
          <mxGeometry x="320" y="50" width="240" height="70" as="geometry" />
        </mxCell>
        <mxCell id="TgKObJJwFAo9QxqFn2fn-98" value="[sufficient SP]" style="text;html=1;align=center;verticalAlign=middle;resizable=0;points=[];autosize=1;strokeColor=none;fillColor=none;" parent="1" vertex="1">
          <mxGeometry x="305" y="390" width="100" height="30" as="geometry" />
        </mxCell>
        <mxCell id="TgKObJJwFAo9QxqFn2fn-99" value="[insufficient SP]" style="text;html=1;align=center;verticalAlign=middle;resizable=0;points=[];autosize=1;strokeColor=none;fillColor=none;" parent="1" vertex="1">
          <mxGeometry x="300" y="640" width="110" height="30" as="geometry" />
        </mxCell>
        <mxCell id="581aqQmIID65XAxpNh4L-6" value="&lt;font face=&quot;Helvetica&quot;&gt;&lt;span style=&quot;background-color: rgb(251, 251, 251);&quot;&gt;Battle&lt;/span&gt;&lt;/font&gt;" style="shape=umlLifeline;perimeter=lifelinePerimeter;whiteSpace=wrap;html=1;container=0;collapsible=0;recursiveResize=0;outlineConnect=0;rounded=1;shadow=0;comic=0;labelBackgroundColor=default;strokeWidth=1;fontFamily=Verdana;fontSize=12;align=center;movable=1;resizable=1;rotatable=1;deletable=1;editable=1;locked=0;connectable=1;" vertex="1" parent="1">
          <mxGeometry x="30" y="210" width="100" height="690" as="geometry" />
        </mxCell>
        <mxCell id="581aqQmIID65XAxpNh4L-7" value="" style="html=1;points=[];perimeter=orthogonalPerimeter;rounded=0;shadow=0;comic=0;labelBackgroundColor=default;strokeWidth=1;fontFamily=Verdana;fontSize=12;align=center;" vertex="1" parent="1">
          <mxGeometry x="75" y="260" width="10" height="610" as="geometry" />
        </mxCell>
        <mxCell id="581aqQmIID65XAxpNh4L-11" value="&lt;b&gt;filterMovesBySPCost(attackSkills, defenseSkills)&lt;/b&gt;" style="html=1;verticalAlign=bottom;endArrow=block;labelBackgroundColor=default;fontFamily=Verdana;fontSize=12;elbow=vertical;edgeStyle=orthogonalEdgeStyle;curved=1;exitX=0.9;exitY=0.051;exitPerimeter=0;exitDx=0;exitDy=0;" edge="1" parent="1">
          <mxGeometry x="0.957" y="-18" relative="1" as="geometry">
            <mxPoint x="284" y="340" as="sourcePoint" />
            <mxPoint x="280" y="378" as="targetPoint" />
            <Array as="points">
              <mxPoint x="356" y="340" />
              <mxPoint x="356" y="378" />
            </Array>
            <mxPoint as="offset" />
          </mxGeometry>
        </mxCell>
        <mxCell id="TgKObJJwFAo9QxqFn2fn-96" value="Alt" style="shape=umlFrame;whiteSpace=wrap;html=1;pointerEvents=0;" parent="1" vertex="1">
          <mxGeometry x="60" y="390" width="690" height="340" as="geometry" />
        </mxCell>
        <mxCell id="TgKObJJwFAo9QxqFn2fn-97" value="" style="endArrow=none;dashed=1;html=1;rounded=0;exitX=0.006;exitY=0.738;exitDx=0;exitDy=0;exitPerimeter=0;entryX=1.003;entryY=0.74;entryDx=0;entryDy=0;entryPerimeter=0;" parent="1" edge="1" target="TgKObJJwFAo9QxqFn2fn-96" source="TgKObJJwFAo9QxqFn2fn-96">
          <mxGeometry width="50" height="50" relative="1" as="geometry">
            <mxPoint x="165.38" y="640" as="sourcePoint" />
            <mxPoint x="544.62" y="640.07" as="targetPoint" />
          </mxGeometry>
        </mxCell>
        <mxCell id="581aqQmIID65XAxpNh4L-12" value="&lt;b&gt;selectMove(availableMoves)&lt;/b&gt;" style="html=1;verticalAlign=bottom;endArrow=block;labelBackgroundColor=default;fontFamily=Verdana;fontSize=12;elbow=vertical;edgeStyle=orthogonalEdgeStyle;curved=1;exitX=0.9;exitY=0.051;exitPerimeter=0;exitDx=0;exitDy=0;" edge="1" parent="1">
          <mxGeometry relative="1" as="geometry">
            <mxPoint x="284" y="440" as="sourcePoint" />
            <mxPoint x="280" y="478" as="targetPoint" />
            <Array as="points">
              <mxPoint x="356" y="440" />
              <mxPoint x="356" y="478" />
            </Array>
          </mxGeometry>
        </mxCell>
        <mxCell id="TgKObJJwFAo9QxqFn2fn-88" value="" style="html=1;verticalAlign=bottom;endArrow=block;labelBackgroundColor=default;fontFamily=Verdana;fontSize=12;edgeStyle=elbowEdgeStyle;elbow=vertical;" parent="1" edge="1" target="TgKObJJwFAo9QxqFn2fn-71">
          <mxGeometry x="-0.4228" relative="1" as="geometry">
            <mxPoint x="270" y="540" as="sourcePoint" />
            <mxPoint x="439.65999999999997" y="540" as="targetPoint" />
            <mxPoint as="offset" />
          </mxGeometry>
        </mxCell>
        <mxCell id="TgKObJJwFAo9QxqFn2fn-89" value="&lt;font face=&quot;Verdana&quot;&gt;&lt;span style=&quot;font-size: 12px;&quot;&gt;&lt;b&gt;execute(Pokemon2)&lt;/b&gt;&lt;/span&gt;&lt;/font&gt;" style="edgeLabel;html=1;align=center;verticalAlign=middle;resizable=0;points=[];labelBackgroundColor=default;" parent="TgKObJJwFAo9QxqFn2fn-88" vertex="1" connectable="0">
          <mxGeometry x="-0.4655" y="1" relative="1" as="geometry">
            <mxPoint x="34" y="-9" as="offset" />
          </mxGeometry>
        </mxCell>
        <mxCell id="581aqQmIID65XAxpNh4L-15" value="" style="endArrow=classic;html=1;rounded=0;exitX=-0.3;exitY=0.735;exitDx=0;exitDy=0;exitPerimeter=0;" edge="1" parent="1" source="TgKObJJwFAo9QxqFn2fn-67">
          <mxGeometry width="50" height="50" relative="1" as="geometry">
            <mxPoint x="220" y="680" as="sourcePoint" />
            <mxPoint x="90" y="716.2790697674418" as="targetPoint" />
          </mxGeometry>
        </mxCell>
        <mxCell id="581aqQmIID65XAxpNh4L-16" value="&lt;font face=&quot;Verdana&quot;&gt;&lt;span style=&quot;font-size: 12px;&quot;&gt;&lt;b&gt;endTurn()&lt;/b&gt;&lt;/span&gt;&lt;/font&gt;" style="edgeLabel;html=1;align=center;verticalAlign=middle;resizable=0;points=[];labelBackgroundColor=default;" vertex="1" connectable="0" parent="1">
          <mxGeometry x="180" y="700" as="geometry" />
        </mxCell>
        <mxCell id="581aqQmIID65XAxpNh4L-17" value="" style="html=1;points=[];perimeter=orthogonalPerimeter;rounded=0;shadow=0;comic=0;labelBackgroundColor=default;strokeWidth=1;fontFamily=Verdana;fontSize=12;align=center;" vertex="1" parent="1">
          <mxGeometry x="655" y="560" width="10" height="80" as="geometry" />
        </mxCell>
        <mxCell id="581aqQmIID65XAxpNh4L-13" value="" style="html=1;verticalAlign=bottom;endArrow=block;labelBackgroundColor=default;fontFamily=Verdana;fontSize=12;edgeStyle=elbowEdgeStyle;elbow=vertical;" edge="1" parent="1">
          <mxGeometry x="-0.4228" relative="1" as="geometry">
            <mxPoint x="470" y="564.5" as="sourcePoint" />
            <mxPoint x="660" y="564.5" as="targetPoint" />
            <mxPoint as="offset" />
          </mxGeometry>
        </mxCell>
        <mxCell id="581aqQmIID65XAxpNh4L-14" value="&lt;font face=&quot;Verdana&quot;&gt;&lt;span style=&quot;font-size: 12px;&quot;&gt;&lt;b&gt;applyEffects()&lt;/b&gt;&lt;/span&gt;&lt;/font&gt;" style="edgeLabel;html=1;align=center;verticalAlign=middle;resizable=0;points=[];labelBackgroundColor=default;" vertex="1" connectable="0" parent="581aqQmIID65XAxpNh4L-13">
          <mxGeometry x="-0.4655" y="1" relative="1" as="geometry">
            <mxPoint x="34" y="-9" as="offset" />
          </mxGeometry>
        </mxCell>
        <mxCell id="TgKObJJwFAo9QxqFn2fn-83" value="" style="html=1;verticalAlign=bottom;endArrow=block;labelBackgroundColor=default;fontFamily=Verdana;fontSize=12;edgeStyle=elbowEdgeStyle;elbow=vertical;" parent="1" edge="1">
          <mxGeometry x="-0.4228" relative="1" as="geometry">
            <mxPoint x="100" y="310.35" as="sourcePoint" />
            <mxPoint x="249.5" y="310" as="targetPoint" />
            <mxPoint as="offset" />
            <Array as="points">
              <mxPoint x="70" y="310" />
            </Array>
          </mxGeometry>
        </mxCell>
        <mxCell id="TgKObJJwFAo9QxqFn2fn-84" value="&lt;font face=&quot;Verdana&quot;&gt;&lt;span style=&quot;font-size: 12px;&quot;&gt;&lt;b&gt;getCurrentSkillPoints()&lt;/b&gt;&lt;/span&gt;&lt;/font&gt;" style="edgeLabel;html=1;align=center;verticalAlign=middle;resizable=0;points=[];labelBackgroundColor=default;" parent="TgKObJJwFAo9QxqFn2fn-83" vertex="1" connectable="0">
          <mxGeometry x="-0.4655" y="1" relative="1" as="geometry">
            <mxPoint x="34" y="-9" as="offset" />
          </mxGeometry>
        </mxCell>
        <mxCell id="581aqQmIID65XAxpNh4L-18" value="" style="html=1;verticalAlign=bottom;endArrow=block;labelBackgroundColor=default;fontFamily=Verdana;fontSize=12;edgeStyle=elbowEdgeStyle;elbow=horizontal;" edge="1" parent="1">
          <mxGeometry x="-0.4228" relative="1" as="geometry">
            <mxPoint x="85" y="770" as="sourcePoint" />
            <mxPoint x="254.65999999999997" y="770" as="targetPoint" />
            <mxPoint as="offset" />
          </mxGeometry>
        </mxCell>
        <mxCell id="581aqQmIID65XAxpNh4L-19" value="&lt;font face=&quot;Verdana&quot;&gt;&lt;span style=&quot;font-size: 12px;&quot;&gt;&lt;b&gt;reduceSP(move.SPCost)&lt;/b&gt;&lt;/span&gt;&lt;/font&gt;" style="edgeLabel;html=1;align=center;verticalAlign=middle;resizable=0;points=[];labelBackgroundColor=default;" vertex="1" connectable="0" parent="581aqQmIID65XAxpNh4L-18">
          <mxGeometry x="-0.4655" y="1" relative="1" as="geometry">
            <mxPoint x="34" y="-9" as="offset" />
          </mxGeometry>
        </mxCell>
        <mxCell id="581aqQmIID65XAxpNh4L-20" value="&lt;b&gt;restoreSP()&lt;/b&gt;" style="html=1;verticalAlign=bottom;endArrow=block;labelBackgroundColor=default;fontFamily=Verdana;fontSize=12;elbow=vertical;edgeStyle=orthogonalEdgeStyle;curved=1;exitX=0.9;exitY=0.051;exitPerimeter=0;exitDx=0;exitDy=0;" edge="1" parent="1">
          <mxGeometry relative="1" as="geometry">
            <mxPoint x="284" y="790" as="sourcePoint" />
            <mxPoint x="280" y="828" as="targetPoint" />
            <Array as="points">
              <mxPoint x="356" y="790" />
              <mxPoint x="356" y="828" />
            </Array>
          </mxGeometry>
        </mxCell>
      </root>
    </mxGraphModel>
  </diagram>
</mxfile>
